PathFileType	4	(X/Y/Z)	7_coords_data.trc
DataRate	CameraRate	NumFrames	NumMarkers	Units	OrigDataRate	OrigDataStartFrame	OrigNumFrames
30.0	30.0	6	21	m	30.0	19	47
Frame#	Time	THUMB_TIP	THUMB_IP	THUMB_MCP	THUMB_CMC	INDEX_TIP	INDEX_DIP	INDEX_PIP	INDEX_MCP	MIDDLE_TIP	MIDDLE_DIP	MIDDLE_PIP	MIDDLE_MCP	RING_TIP	RING_DIP	RING_PIP	RING_MCP	PINKY_TIP	PINKY_DIP	PINKY_PIP	PINKY_MCP	WRIST
X1	Y1	Z1	X2	Y2	Z2	X3	Y3	Z3	X4	Y4	Z4	X5	Y5	Z5	X6	Y6	Z6	X7	Y7	Z7	X8	Y8	Z8	X9	Y9	Z9	X10	Y10	Z10	X11	Y11	Z11	X12	Y12	Z12	X13	Y13	Z13	X14	Y14	Z14	X15	Y15	Z15	X16	Y16	Z16	X17	Y17	Z17	X18	Y18	Z18	X19	Y19	Z19	X20	Y20	Z20	X21	Y21	Z21
17	0.5999999999999973	0.5379700571971333	-0.0012704539906653878	-0.11278664764283639	0.5197251123422947	-0.00855776391540275	-0.1247037404638528	0.491034402024623	-0.0169127028196433	-0.1159940827568095	0.4793248289475972	-0.028136835045514896	-0.07443936275859575	0.4960383774237306	-0.0009384151864152424	-0.1149528896014805	0.5130993684352376	-0.0008191100349846936	-0.12102811404063638	0.5265240242201363	0.02005446275374545	-0.1250384019468316	0.4900086373796324	0.03394586713680203	-0.10808872637015005	0.4981208907776494	-0.013175778541668959	-0.10095465858768995	0.5158923606654959	-0.009848641199022845	-0.09990346158972244	0.5362524487091797	0.01087518839041357	-0.10222709064820903	0.5038977435123664	0.03769733792151719	-0.08706485904601996	0.5011008902444278	-0.007602178806714988	-0.08414082448503618	0.5181657180728954	-0.012517827404514681	-0.08103791455277673	0.5391116761235394	0.0009399271423146116	-0.08161727877152178	0.5176174307692226	0.03251051875584432	-0.06835017675864147	0.5063564528639941	-0.021681104311709887	-0.05854912258349715	0.5211110777414024	-0.027732829700446326	-0.06476825954502835	0.538517206340395	-0.016023675983885655	-0.06391127329234228	0.5257260527416816	0.014782401995508843	-0.050190653767642146	0.462283081001861	-0.023011742144276925	-0.051989820119430985
18	0.6333333333333304	0.5380048699003644	-0.0014457693044183095	-0.11272932572438107	0.5197678828307803	-0.008709077248425179	-0.12467322208755949	0.4910493428644256	-0.016999208674917998	-0.11599340739297267	0.4793254787586523	-0.0281758686233754	-0.0744299224232795	0.4960439509215906	-0.0009463661523965161	-0.11496012271322828	0.5131130158199652	-0.0008953117287083812	-0.12101358593199021	0.5266213603463001	0.019930925161463775	-0.12498879890141285	0.49010192535632435	0.03388764972191338	-0.10810162028695236	0.498131871140139	-0.013269645143297426	-0.10098038758097308	0.5159064264256279	-0.009964732672016141	-0.09991139835732896	0.5363268367591362	0.010702275225496827	-0.10221165407687172	0.5040264665004794	0.03760364437701125	-0.08707394157043163	0.5017401041759165	-0.006653241396366583	-0.08555270497727255	0.5181270795979245	-0.012668937255203683	-0.08104954610238524	0.5391256565181336	0.0007070285731101134	-0.08161812721871076	0.5177560862104204	0.03236776764687277	-0.0683644522503547	0.506367496744319	-0.02163764004799207	-0.05845166759503459	0.5210118397111657	-0.027887658138876836	-0.06473501804944834	0.5384854658150071	-0.01627784267701049	-0.06390039554522275	0.5258358713641405	0.014598162078861887	-0.050205741787498426	0.4622830810018608	-0.023011742144276925	-0.05198982011943096
19	0.6666666666666637	0.5381015154081158	-0.001773510977163717	-0.11263624483263102	0.5198784869554598	-0.008984005916001236	-0.12463332767600127	0.49111835819172256	-0.017150995124002977	-0.11597450092120135	0.47934175814810054	-0.02824047838049437	-0.07440257466661745	0.4961196908172816	-0.0010408955067159331	-0.11496366568250468	0.5132072371353955	-0.0010901187419639635	-0.12096477707119083	0.526836027479392	0.01966908005684931	-0.12487905503663249	0.4903050083150545	0.0337605014596124	-0.10812935128807125	0.4981377960630037	-0.013417689530112686	-0.10095803404286441	0.5159306127550937	-0.010214986254209024	-0.0998817599661519	0.5364631345406639	0.010345481474598128	-0.10213836491557582	0.5042648490888617	0.03742401816292873	-0.08709937606050308	0.5027254420635858	-0.005681770612764647	-0.08705892842944557	0.5180889603072407	-0.012924219201497111	-0.08101664031843536	0.5391666389494872	0.00032732947487568165	-0.08157152745282165	0.517979390182363	0.03213758076477191	-0.06838330404882781	0.506394421862501	-0.021642456420339462	-0.058269629766846576	0.5208833888203563	-0.028153243217237778	-0.064647677413228	0.5384439051810059	-0.016673163442790795	-0.06384266032043642	0.5260037185963075	0.014313056484498432	-0.0502052344872537	0.4622830810018609	-0.023011742144276925	-0.051989820119430985
20	0.6999999999999968	0.5381521279594114	-0.00213860039645708	-0.11251765852254925	0.5199555488228805	-0.009280084976388325	-0.12459589124603054	0.49115622942047765	-0.017341326565880943	-0.11596828520529034	0.4793475721319821	-0.028326777946648507	-0.07437783592900027	0.4961925730376838	-0.0011042783586702187	-0.11497351289857324	0.5133024023716529	-0.0013073600289326137	-0.12090752486331169	0.5270527512620332	0.01937786301187494	-0.12478815447007183	0.49051726482770597	0.03361392253913642	-0.10817102673561207	0.49813357413564574	-0.013602404659001976	-0.1009366937356325	0.5159397385572941	-0.010473726953720841	-0.09986343495709851	0.5365976539269202	0.009967048094194464	-0.1020622523715054	0.5045069853310246	0.03723441844805375	-0.08713484723685896	0.5038196800504415	-0.004874005855850516	-0.0883383525534554	0.51801428307958	-0.013197841390064302	-0.08097445366465095	0.5391799196349834	-8.683483101401546e-05	-0.08151971985021586	0.5182102509890516	0.03189719450681516	-0.06840424432712847	0.5063584408823196	-0.0217033631566117	-0.05804482325114568	0.5206889044409874	-0.028450141599988932	-0.06453472269795357	0.5383425009086127	-0.017110918414403042	-0.06377015203037975	0.5261770326868938	0.014015551281435057	-0.05020447039544454	0.462283081001861	-0.023011742144276925	-0.05198982011943096
21	0.7333333333333302	0.5382358561325135	-0.0025406126615181712	-0.1123579810678445	0.5200671324273722	-0.009594731357739583	-0.1245291309044812	0.49121812037029267	-0.017532103230187057	-0.11595284784659665	0.47935530245346114	-0.02841491356137804	-0.07435082878060156	0.4962935779006542	-0.0011661358287287094	-0.11496583936403482	0.5134212487898075	-0.00152368524265456	-0.12084079028548511	0.5273031995840042	0.01907868731072615	-0.1246935192299102	0.49077408080476237	0.03346450790426103	-0.10819176959350266	0.4981544265286486	-0.013854425047635677	-0.10094082557219919	0.5159646078405615	-0.010770828483097517	-0.09980553976503256	0.5367519809364535	0.009543617463767085	-0.10195448267821222	0.504799954065753	0.03702993361511964	-0.08713158403179602	0.5051464444291582	-0.004184659430475746	-0.08951993432156571	0.5179612776580096	-0.013475925576093561	-0.08089135258827787	0.5392221344683077	-0.0005192482715741242	-0.08142093725436278	0.5184767977730343	0.03163565571186244	-0.06836666633578087	0.5062782802476445	-0.021819288235762402	-0.057860701405973464	0.5205219008236893	-0.028712953084430004	-0.06438731291884278	0.5382738085513806	-0.017526328792066614	-0.06365163094336793	0.5263493422410755	0.013712984505589776	-0.05013142906228413	0.462283081001861	-0.023011742144276925	-0.051989820119430985
22	0.7666666666666633	0.538339870823132	-0.0028976169531603757	-0.11216413654304916	0.5201934922399383	-0.009852057765958211	-0.12442564939003115	0.4912925460060299	-0.017690477167992436	-0.11593362442171234	0.4793765645164688	-0.028472537530996878	-0.0743205668619876	0.4964099022350562	-0.0012458626069679068	-0.11491340598265132	0.513551743768241	-0.0017440033268701916	-0.12073656016868789	0.5275675836260572	0.018771651252805444	-0.12456722372054083	0.4910568259679775	0.03333328158341453	-0.10817943584823586	0.49819325099658607	-0.01410759227727132	-0.1008526506633799	0.5160083116266396	-0.011061235581598217	-0.09969363140976811	0.5369219876016228	0.009125320424575034	-0.10182216701507382	0.5051096254331625	0.036827434148563265	-0.08710094323829654	0.5058571386026514	-0.00390815284960544	-0.08984284774129195	0.5179521491196748	-0.013718776513942377	-0.08076196761270046	0.5392931604720443	-0.0008939902397647748	-0.0812777878136447	0.5187316172355597	0.03139975094560343	-0.068275555159726	0.5062443286174141	-0.021867199157585948	-0.05764347466781264	0.5203878802643351	-0.028923234761494054	-0.06421403844630669	0.5382213253674552	-0.017867590657761112	-0.06347040667882789	0.5264876510988458	0.013463475819929904	-0.049995666884357526	0.4622830810018609	-0.023011742144276925	-0.051989820119430985
